{"asset":{"version":"2.0","generator":"babylon.js glTF exporter for 3ds max 2017 v1.3.4"},"scene":0,"scenes":[{"nodes":[0,1,2,3,4],"extensions":{}}],"nodes":[{"mesh":0,"translation":[0.0,0.0,0.0],"rotation":[0.0,0.0,0.0,1.0],"scale":[6.292225,6.292225,6.292225],"name":"Circle001"},{"mesh":1,"translation":[32.58724,0.0,-12.0228081],"rotation":[0.0,0.0,0.0,1.0],"scale":[1.0,1.0,1.0],"name":"Teapot001"},{"mesh":2,"translation":[-16.1745758,6.641884,-10.5662622],"rotation":[0.0,0.0,0.0,1.0],"scale":[1.0,1.0,1.0],"name":"Torus Knot001"},{"mesh":3,"translation":[9.081833,0.0,36.2442474],"rotation":[0.0,-0.311899155,0.0,0.9501152],"scale":[1.0,1.0,1.0],"name":"Box001"},{"translation":[0.0,0.0,0.0],"rotation":[0.0,0.0,0.0,1.0],"scale":[1.0,1.0,1.0],"name":"Default light"}],"meshes":[{"primitives":[{"attributes":{"POSITION":1,"NORMAL":2},"indices":0,"mode":4,"material":0}],"name":"Circle001"},{"primitives":[{"attributes":{"POSITION":4,"NORMAL":5,"TEXCOORD_0":6},"indices":3,"mode":4,"material":1}],"name":"Teapot001"},{"primitives":[{"attributes":{"POSITION":8,"NORMAL":9,"TEXCOORD_0":10},"indices":7,"mode":4,"material":2}],"name":"Torus Knot001"},{"primitives":[{"attributes":{"POSITION":12,"NORMAL":13,"TEXCOORD_0":14},"indices":11,"mode":4,"material":3}],"name":"Box001"}],"accessors":[{"bufferView":0,"componentType":5123,"count":390,"type":"SCALAR","name":"accessorIndices"},{"bufferView":1,"componentType":5126,"count":390,"max":[199.999985,0.0,199.999985],"min":[-199.999985,0.0,-199.999985],"type":"VEC3","name":"accessorPositions"},{"bufferView":1,"byteOffset":4680,"componentType":5126,"count":390,"type":"VEC3","name":"accessorNormals"},{"bufferView":0,"byteOffset":780,"componentType":5123,"count":3072,"type":"SCALAR","name":"accessorIndices"},{"bufferView":1,"byteOffset":9360,"componentType":5126,"count":3072,"max":[23.080471,21.207943,13.46536],"min":[-20.19804,0.0,-13.4653587],"type":"VEC3","name":"accessorPositions"},{"bufferView":1,"byteOffset":46224,"componentType":5126,"count":3072,"type":"VEC3","name":"accessorNormals"},{"bufferView":2,"componentType":5126,"count":3072,"type":"VEC2","name":"accessorUVs"},{"bufferView":0,"byteOffset":6924,"componentType":5123,"count":8640,"type":"SCALAR","name":"accessorIndices"},{"bufferView":1,"byteOffset":83088,"componentType":5126,"count":8640,"max":[8.039172,7.3635025,9.895021],"min":[-10.6197548,-7.363356,-9.894914],"type":"VEC3","name":"accessorPositions"},{"bufferView":1,"byteOffset":186768,"componentType":5126,"count":8640,"type":"VEC3","name":"accessorNormals"},{"bufferView":2,"byteOffset":24576,"componentType":5126,"count":8640,"type":"VEC2","name":"accessorUVs"},{"bufferView":0,"byteOffset":24204,"componentType":5123,"count":5760,"type":"SCALAR","name":"accessorIndices"},{"bufferView":1,"byteOffset":290448,"componentType":5126,"count":5760,"max":[10.86603,101.0,11.0000019],"min":[-10.8660374,-1.000001,-11.0000019],"type":"VEC3","name":"accessorPositions"},{"bufferView":1,"byteOffset":359568,"componentType":5126,"count":5760,"type":"VEC3","name":"accessorNormals"},{"bufferView":2,"byteOffset":93696,"componentType":5126,"count":5760,"type":"VEC2","name":"accessorUVs"}],"bufferViews":[{"buffer":0,"byteLength":35724,"name":"bufferViewScalar"},{"buffer":0,"byteOffset":35724,"byteLength":428688,"byteStride":12,"name":"bufferViewFloatVec3"},{"buffer":0,"byteOffset":464412,"byteLength":139776,"byteStride":8,"name":"bufferViewFloatVec2"}],"buffers":[{"uri":"shadows.bin","byteLength":604188}],"materials":[{"pbrMetallicRoughness":{"baseColorFactor":[0.667609453,0.667609453,0.667609453,1.0],"metallicFactor":0.280429363,"roughnessFactor":0.9},"emissiveFactor":[0.0,0.0,0.0],"alphaMode":"OPAQUE","name":"03 - Default"},{"pbrMetallicRoughness":{"baseColorFactor":[0.99628365,0.283097327,0.283097327,1.0],"metallicFactor":0.573531,"roughnessFactor":0.9},"emissiveFactor":[0.0,0.0,0.0],"alphaMode":"OPAQUE","name":"02 - Default"},{"pbrMetallicRoughness":{"baseColorFactor":[0.8133678,0.855341733,0.976766467,1.0],"metallicFactor":0.931432843,"roughnessFactor":0.53},"emissiveFactor":[0.0,0.0,0.0],"alphaMode":"OPAQUE","name":"04 - Default"},{"pbrMetallicRoughness":{"baseColorFactor":[0.60796535,0.913720131,0.8749912,1.0],"metallicFactor":0.8412977,"roughnessFactor":0.580000043},"emissiveFactor":[0.0,0.0,0.0],"alphaMode":"OPAQUE","name":"01 - Default"}]}